<svg width="2741" height="780" viewBox="0 0 2741 780" fill="none" xmlns="http://www.w3.org/2000/svg">
<path d="M692.278 603V177H845.278C892.878 177 929.878 188.4 956.278 211.2C982.678 234 995.878 265.6 995.878 306C995.878 333.2 989.878 356.8 977.878 376.8C965.878 396.4 948.678 411.4 926.278 421.8C903.878 432.2 876.878 437.4 845.278 437.4H743.878V603H692.278ZM743.878 387H845.278C877.278 387 901.278 380.2 917.278 366.6C933.678 353 941.878 332.8 941.878 306C941.878 280 933.678 260.4 917.278 247.2C901.278 234 877.278 227.4 845.278 227.4H743.878V387ZM1182.52 610.2C1153.32 610.2 1127.72 603.4 1105.72 589.8C1083.72 576.2 1066.72 557 1054.72 532.2C1042.72 507 1036.72 477.6 1036.72 444C1036.72 410 1042.72 380.6 1054.72 355.8C1066.72 331 1083.72 311.8 1105.72 298.2C1127.72 284.6 1153.32 277.8 1182.52 277.8C1211.72 277.8 1237.12 284.6 1258.72 298.2C1280.72 311.8 1297.72 331 1309.72 355.8C1321.72 380.6 1327.72 410 1327.72 444C1327.72 477.6 1321.72 507 1309.72 532.2C1297.72 557 1280.72 576.2 1258.72 589.8C1237.12 603.4 1211.72 610.2 1182.52 610.2ZM1182.52 562.2C1211.72 562.2 1234.32 551.8 1250.32 531C1266.72 509.8 1274.92 480.8 1274.92 444C1274.92 407.2 1266.72 378.4 1250.32 357.6C1234.32 336.4 1211.72 325.8 1182.52 325.8C1153.32 325.8 1130.52 336.4 1114.12 357.6C1097.72 378.4 1089.52 407.2 1089.52 444C1089.52 480.8 1097.72 509.8 1114.12 531C1130.52 551.8 1153.32 562.2 1182.52 562.2ZM1396.41 603V285H1440.81L1443.21 365.4L1438.41 363.6C1442.41 336.4 1451.01 316.6 1464.21 304.2C1477.81 291.4 1495.81 285 1518.21 285H1549.41V333H1518.81C1502.81 333 1489.41 336 1478.61 342C1468.21 347.6 1460.21 356.2 1454.61 367.8C1449.41 379 1446.81 393.4 1446.81 411V603H1396.41ZM1710.27 603C1681.47 603 1660.07 596.4 1646.07 583.2C1632.47 570 1625.67 549.4 1625.67 521.4V210.6H1676.07V520.2C1676.07 534.6 1679.27 544.6 1685.67 550.2C1692.07 555.8 1701.87 558.6 1715.07 558.6H1760.67V603H1710.27ZM1578.87 329.4V285H1760.67V329.4H1578.87ZM1943.65 610.2C1914.05 610.2 1888.25 603.4 1866.25 589.8C1844.65 576.2 1827.85 557 1815.85 532.2C1803.85 507 1797.85 477.6 1797.85 444C1797.85 410.4 1803.85 381.2 1815.85 356.4C1827.85 331.6 1844.65 312.4 1866.25 298.8C1888.25 284.8 1914.05 277.8 1943.65 277.8C1968.05 277.8 1989.65 282.2 2008.45 291C2027.65 299.4 2043.25 311.8 2055.25 328.2C2067.25 344.6 2075.05 364.6 2078.65 388.2L2025.85 391.8C2022.25 370.6 2013.05 354.4 1998.25 343.2C1983.45 331.6 1965.25 325.8 1943.65 325.8C1914.45 325.8 1891.65 336.4 1875.25 357.6C1858.85 378.4 1850.65 407.2 1850.65 444C1850.65 480.8 1858.85 509.8 1875.25 531C1891.65 551.8 1914.45 562.2 1943.65 562.2C1965.25 562.2 1983.45 556.2 1998.25 544.2C2013.05 532.2 2022.25 514.2 2025.85 490.2L2078.65 493.8C2075.05 517.4 2067.25 538 2055.25 555.6C2043.25 572.8 2027.65 586.2 2008.45 595.8C1989.65 605.4 1968.05 610.2 1943.65 610.2ZM2235.14 610.2C2202.34 610.2 2176.14 602.6 2156.54 587.4C2137.34 572.2 2127.74 551 2127.74 523.8C2127.74 496.6 2135.74 475.2 2151.74 459.6C2167.74 444 2193.14 433 2227.94 426.6L2340.74 405.6C2340.74 378.8 2334.34 358.8 2321.54 345.6C2309.14 332.4 2290.34 325.8 2265.14 325.8C2243.14 325.8 2225.74 330.8 2212.94 340.8C2200.14 350.4 2191.34 364.4 2186.54 382.8L2133.14 378.6C2139.14 348.6 2153.54 324.4 2176.34 306C2199.54 287.2 2229.14 277.8 2265.14 277.8C2305.94 277.8 2337.14 289.4 2358.74 312.6C2380.34 335.4 2391.14 367 2391.14 407.4V538.8C2391.14 546 2392.34 551.2 2394.74 554.4C2397.54 557.2 2401.94 558.6 2407.94 558.6H2420.54V603C2418.94 603.4 2416.34 603.6 2412.74 603.6C2409.14 604 2405.34 604.2 2401.34 604.2C2386.94 604.2 2375.14 602 2365.94 597.6C2357.14 592.8 2350.74 585.6 2346.74 576C2342.74 566 2340.74 553 2340.74 537L2346.74 538.2C2343.94 551.8 2337.14 564.2 2326.34 575.4C2315.54 586.2 2302.14 594.8 2286.14 601.2C2270.14 607.2 2253.14 610.2 2235.14 610.2ZM2239.94 565.8C2261.14 565.8 2279.14 561.8 2293.94 553.8C2309.14 545.4 2320.74 534.2 2328.74 520.2C2336.74 505.8 2340.74 489.8 2340.74 472.2V449.4L2237.54 468.6C2215.94 472.6 2200.94 478.8 2192.54 487.2C2184.54 495.2 2180.54 505.8 2180.54 519C2180.54 533.8 2185.74 545.4 2196.14 553.8C2206.94 561.8 2221.54 565.8 2239.94 565.8ZM2536.35 603C2517.95 603 2502.95 598.2 2491.35 588.6C2479.75 579 2473.95 563.8 2473.95 543V177H2524.35V538.8C2524.35 545.2 2525.95 550.2 2529.15 553.8C2532.75 557 2537.75 558.6 2544.15 558.6H2571.75V603H2536.35ZM2690.45 603C2672.05 603 2657.05 598.2 2645.45 588.6C2633.85 579 2628.05 563.8 2628.05 543V177H2678.45V538.8C2678.45 545.2 2680.05 550.2 2683.25 553.8C2686.85 557 2691.85 558.6 2698.25 558.6H2725.85V603H2690.45Z" fill="black"/>
<path d="M427.317 505.244C427.317 505.244 411.235 546.985 335.963 576.677C305.845 588.611 273.253 566.647 272.401 534.283L266.661 287.619H346.021C353.209 296.627 365.001 301.798 377.958 298.815C389.38 296.201 398.7 286.966 401.229 275.544C405.889 254.887 390.318 236.616 370.541 236.616C360.568 236.616 351.703 241.333 345.963 248.692H265.665L264.586 201.269C283.936 193.057 297.404 173.622 296.892 151.089C296.239 122.931 272.513 99.4319 244.44 99.0056C214.605 98.5794 190.312 122.561 190.312 152.254C190.312 174.218 203.609 193.142 222.618 201.212L221.539 248.635H141.241C134.052 239.543 122.26 234.457 109.304 237.44C97.8814 239.997 88.5612 249.232 86.0328 260.654C81.3729 281.311 96.8587 299.582 116.72 299.582C126.694 299.582 135.559 294.866 141.298 287.592H220.658L214.833 534.256C214.094 566.619 181.361 588.584 151.327 576.65C76.0268 546.985 59.9731 505.216 59.9731 505.216L106.089 497.573L14 451.825C14 517.945 48.4664 579.267 105.012 613.586C124.363 625.293 145.389 636.431 166.415 644.416C193.692 654.901 211.366 665.073 222.788 673.739C235.092 683.116 252.453 683.116 264.841 673.739C276.263 665.016 293.937 654.901 321.214 644.416C342.241 636.403 363.267 625.293 382.617 613.586C439.132 579.176 473.629 517.946 473.629 451.825L381.541 497.573L427.656 505.216L427.317 505.244ZM243.562 174.986C231.059 174.986 220.802 164.814 220.802 152.226C220.802 139.639 230.974 129.523 243.562 129.523C256.149 129.523 266.265 139.639 266.265 152.226C266.265 164.814 256.149 174.986 243.562 174.986Z" fill="black"/>
</svg>
